<svg xmlns="http://www.w3.org/2000/svg" viewBox="0 0 32 32">
  <rect width="32" height="32" rx="6" fill="#2563EB"/>
  <g transform="translate(4 4)" fill="none" stroke="white" stroke-width="2" stroke-linecap="round" stroke-linejoin="round">
    <path d="M6 2h12v8a6 6 0 0 1-12 0V2z" fill="white" fill-opacity="0.3"/>
    <path d="M6 2h12v8a6 6 0 0 1-12 0V2z"/>
    <path d="M18 4h2a2 2 0 0 1 2 2v1a4 4 0 0 1-4 4"/>
    <path d="M6 4H4a2 2 0 0 0-2 2v1a4 4 0 0 0 4 4"/>
    <line x1="9" y1="20" x2="15" y2="20"/>
    <line x1="12" y1="16" x2="12" y2="20"/>
  </g>
</svg>
