<svg xmlns="http://www.w3.org/2000/svg" width="32" height="32" viewBox="0 0 32 32">
  <rect width="32" height="32" rx="4" fill="#ffffff"/>
  <g transform="translate(4,4) scale(1)" fill="none" stroke="#2563EB" stroke-width="1.8" stroke-linecap="round" stroke-linejoin="round">
    <path d="M6 3h12v8a6 6 0 0 1-12 0V3z"/>
    <path d="M18 5h2a2 2 0 0 1 2 2v1a4 4 0 0 1-4 4"/>
    <path d="M6 5H4a2 2 0 0 0-2 2v1a4 4 0 0 0 4 4"/>
    <line x1="9" y1="21" x2="15" y2="21"/>
    <line x1="12" y1="17" x2="12" y2="21"/>
  </g>
</svg>
